<!--
  - Copyright (c) 2022 Haruka Ma
  - This file is part of Leo / Aleo IntelliJ plugin.
  -
  - Leo / Aleo IntelliJ plugin is free software: you can redistribute it and/or modify it
  - under the terms of the GNU General Public License as published by the Free Software
  - Foundation, either version 3 of the License, or (at your option) any later version.
  -
  - Leo / Aleo IntelliJ plugin is distributed in the hope that it will be useful, but
  - WITHOUT ANY WARRANTY; without even the implied warranty of MERCHANTABILITY
  - or FITNESS FOR A PARTICULAR PURPOSE.See the GNU General Public License for more details.
  -
  - You should have received a copy of the GNU General Public License along with
  - Leo / Aleo IntelliJ plugin. If not, see <https://www.gnu.org/licenses/>.
  -->

<svg xmlns="http://www.w3.org/2000/svg" width="16px" height="16px" viewBox="0 0 2048 2048">
    <rect fill-opacity="0.6" x="0" y="0" width="2048" height="2048" rx="512" ry="512" fill="#B99BF8"></rect>
    <g transform="scale(0.75)">
        <path fill-opacity="0.7" transform="translate(696.32, 2088.48) rotate(180) scale(-1, 1)" fill="#231f20"
              d="M1073 53q-77 -41 -158 -61.5t-172 -20.5q-287 0 -445.5 203t-158.5 571q0 366 159.5 570.5t444.5 204.5q91 0 172 -20.5t158 -61.5v-207q-74 61 -159 93t-171 32q-197 0 -295 -152t-98 -459q0 -306 98 -458t295 -152q88 0 172.5 32t157.5 93v-207z"></path>
    </g>
</svg>