<?xml version="1.0" encoding="UTF-8"?>
<!--
  - Copyright (c) 2022 Haruka Ma
  - This file is part of Leo / Aleo IntelliJ plugin.
  -
  - Leo / Aleo IntelliJ plugin is free software: you can redistribute it and/or modify it
  - under the terms of the GNU General Public License as published by the Free Software
  - Foundation, either version 3 of the License, or (at your option) any later version.
  -
  - Leo / Aleo IntelliJ plugin is distributed in the hope that it will be useful, but
  - WITHOUT ANY WARRANTY; without even the implied warranty of MERCHANTABILITY
  - or FITNESS FOR A PARTICULAR PURPOSE.See the GNU General Public License for more details.
  -
  - You should have received a copy of the GNU General Public License along with
  - Leo / Aleo IntelliJ plugin. If not, see <https://www.gnu.org/licenses/>.
  -->
<svg width="16px" height="16px" version="1.1" viewBox="0 0 2048 2048" xmlns="http://www.w3.org/2000/svg">
 <path d="m1920 1024c0 494.85-401.15 896-896 896s-896-401.15-896-896 401.15-896 896-896 896 401.15 896 896"
       fill="#f98b9e" fill-opacity=".6" stroke-width="128"/>
 <path d="m1280 1188.2c-60.16 58.752-124.42 89.02-243.2 91.836-132.99 2.816-268.8-92.237-268.8-255.95 0-164.86 124.29-256.05 268.8-256.05 108.59 0 185.39 23.648 230.4 70.945l78.874-91.844c-87.91-72.519-157.18-107.05-309.5-107.05-225.02 0-396.54 173.82-396.54 384 0 215.3 174.59 384 384.26 384 165.2 0 258.69-52.096 334.59-130.43-52.582-59.637-78.874-89.455-78.874-89.455z"
       fill="#231f20" fill-opacity=".7" stroke-width="128"/>
</svg>
