<!--
  - Copyright (c) 2022 Haruka Ma
  - This file is part of Leo / Aleo IntelliJ plugin.
  -
  - Leo / Aleo IntelliJ plugin is free software: you can redistribute it and/or modify it
  - under the terms of the GNU General Public License as published by the Free Software
  - Foundation, either version 3 of the License, or (at your option) any later version.
  -
  - Leo / Aleo IntelliJ plugin is distributed in the hope that it will be useful, but
  - WITHOUT ANY WARRANTY; without even the implied warranty of MERCHANTABILITY
  - or FITNESS FOR A PARTICULAR PURPOSE.See the GNU General Public License for more details.
  -
  - You should have received a copy of the GNU General Public License along with
  - Leo / Aleo IntelliJ plugin. If not, see <https://www.gnu.org/licenses/>.
  -->

<svg xmlns="http://www.w3.org/2000/svg" width="16px" height="16px" viewBox="0 0 2048 2048">
    <rect fill-opacity="0.6" x="0" y="0" width="2048" height="2048" rx="512" ry="512" fill="#be9aff"></rect>
    <g transform="scale(0.75)">
        <path fill-opacity="0.7" transform="translate(778.24, 2088.48) rotate(180) scale(-1, 1)" fill="#231f20"
              d="M760 705q78 -20 133 -75.5t137 -221.5l203 -408h-217l-178 377q-77 161 -138.5 207.5t-160.5 46.5h-193v-631h-203v1493h416q246 0 377 -111t131 -321q0 -148 -80.5 -241.5t-226.5 -114.5zM346 1327v-530h221q145 0 216 65t71 199q0 129 -75.5 197.5t-219.5 68.5h-213z "></path>
    </g>
</svg>